# AST/ASF file generated using VICON BodyLanguage
# -----------------------------------------------
:version 1.10
:name VICON
:units
  mass 1.0
  length 0.45
  angle deg
:documentation
   .ast/.asf automatically generated from VICON data using
   VICON BodyBuilder and BodyLanguage model FoxedUp or BRILLIANT.MOD
:root
   order TX TY TZ RX RY RZ
   axis XYZ
   position 0 0 0  
   orientation 0 0 0 
:bonedata
  begin
     id 1 
     name lhipjoint
     direction 0.604623 -0.733026 0.311616 
     length 2.56391 
     axis 0 0 0  XYZ
  end
  begin
     id 2 
     name lfemur
     direction 0.34202 -0.939693 0  
     length 7.75596  
     axis 0 0 20  XYZ
    dof rx ry rz
    limits (-160.0 20.0)
           (-70.0 70.0)
           (-60.0 70.0)
  end
  begin
     id 3 
     name ltibia
     direction 0.34202 -0.939693 0   
     length 7.63697   
     axis 0 0 20   XYZ
    dof rx
    limits (-10.0 170.0)
  end
  begin
     id 4 
     name lfoot
     direction 0.048038 -0.131983 0.990087   
     length 1.94388   
     axis -90 7.62852e-016 20   XYZ
    dof rx rz
    limits (-45.0 90.0)
           (-70.0 20.0)
  end
  begin
     id 5 
     name ltoes
     direction 1.53565e-011 -4.21929e-011 1   
     length 0.984801   
     axis -90 7.62852e-016 20   XYZ
    dof rx
    limits (-90.0 20.0)
  end
  begin
     id 6 
     name rhipjoint
     direction -0.609162 -0.729836 0.31026   
     length 2.57511  
     axis 0 0 0  XYZ 
  end
  begin
     id 7 
     name rfemur
     direction -0.34202 -0.939693 0   
     length 7.60772   
     axis 0 0 -20   XYZ
    dof rx ry rz
    limits (-160.0 20.0)
           (-70.0 70.0)
           (-70.0 60.0)
  end
  begin
     id 8 
     name rtibia
     direction -0.34202 -0.939693 0   
     length 7.68497   
     axis 0 0 -20   XYZ
    dof rx
    limits (-10.0 170.0)
 end
 begin
     id 9 
     name rfoot
     direction -0.0969806 -0.266452 0.958957   
     length 2.01398  
     axis -90 -7.62852e-016 -20   XYZ
    dof rx rz
    limits (-45.0 90.0)
           (-20.0 70.0)
  end
  begin
     id 10 
     name rtoes
     direction -1.53552e-011 -4.21869e-011 1   
     length 1.00896   
     axis -90 -7.62852e-016 -20   XYZ
    dof rx
    limits (-90.0 20.0)
  end
  begin
     id 11 
     name lowerback
     direction 0.0305179 0.993923 -0.10576   
     length 2.09077   
     axis 0 0 0   XYZ
    dof rx ry rz
    limits (-20.0 45.0)
           (-30.0 30.0)
           (-30.0 30.0)
  end
  begin
     id 12 
     name upperback
     direction -0.0137909 0.999867 0.00873764   
     length 2.08918   
     axis 0 0 0   XYZ
    dof rx ry rz
    limits (-20.0 45.0)
           (-30.0 30.0)
           (-30.0 30.0)
  end
  begin
     id 13 
     name thorax
     direction -0.0278536 0.997917 0.0581839   
     length 2.11939   
     axis 0 0 0   XYZ
    dof rx ry rz
    limits (-20.0 45.0)
           (-30.0 30.0)
           (-30.0 30.0)
  end
  begin
     id 14 
     name lowerneck
     direction 0.0138689 0.999837 -0.0116016   
     length 1.74353   
     axis 0 0 0   XYZ
    dof rx ry rz
    limits (-20.0 45.0)
           (-30.0 30.0)
           (-30.0 30.0)
  end
  begin
     id 15 
     name upperneck
     direction -0.00992078 0.999667 0.0238149   
     length 1.71734   
     axis 0 0 0   XYZ
    dof rx ry rz
    limits (-20.0 45.0)
           (-30.0 30.0)
           (-30.0 30.0)
  end
  begin
     id 16
     name head
     direction -0.00530555 0.999941 0.00944937  
     length 1.78249  
     axis 0 0 0   XYZ
    dof rx ry rz
    limits (-20.0 45.0)
           (-30.0 30.0)
           (-30.0 30.0)
  end
  begin
     id 17 
     name lclavicle
     direction 0.929165 0.366864 0.0454227  
     length 3.65686  
     axis 0 0 0   XYZ
    dof ry rz
    limits (-20.0 10.0)
           (0.0 20.0)
  end
  begin
     id 18 
     name lhumerus
     direction 1 -4.4897e-011 3.05413e-018   
     length 5.15218   
     axis -180 -30 -90   XYZ
    dof rx ry rz
    limits (-60.0 90.0)
           (-90.0 90.0)
           (-90.0 90.0)
  end
  begin
     id 19
     name lradius
     direction 1 -4.48963e-011 5.40022e-027   
     length 3.49459   
     axis -180 -30 -90   XYZ
    dof rx
    limits (-10.0 170.0)
  end
  begin
     id 20
     name lwrist
     direction 1 -4.48966e-011 9.79369e-027   
     length 1.7473   
     axis -4.67603e-015 90 90   XYZ
    dof ry
    limits (-180.0 0.0)
 end
  begin
     id 21 
     name lhand
     direction 1 -4.48996e-011 1.9593e-026   
     length 0.512466   
     axis -1.24987e-014 90 90   XYZ
    dof rx rz
    limits (-90.0 90.0)
           (-45.0 45.0)
  end
  begin
     id 22 
     name lfingers
     direction 1 -4.48931e-011 3.91616e-026   
     length 0.413163   
     axis -2.49979e-014 90 90   XYZ
    dof rx
    limits (0.0 90.0)
  end
  begin
     id 23
     name lthumb
     direction 0.707107 -6.34959e-011 0.707107   
     length 0.593222   
     axis -90 45 5.69224e-014   XYZ
    dof rx rz
    limits (-45.0 45.0)
           (-45.0 45.0)
  end
  begin
     id 24 
     name rclavicle
     direction -0.951469 0.307727 0.00346571   
     length 3.42864  
     axis 0 0 0   XYZ 
    dof ry rz
    limits (-10.0 20.0)
           (-20.0 0.0)
  end
  begin
     id 25 
     name rhumerus
     direction -1 -4.48967e-011 2.58643e-027  
     length 5.44344   
     axis -180 30 90   XYZ
    dof rx ry rz
    limits (-90.0 60.0)
           (-90.0 90.0)
           (-90.0 90.0)
  end
  begin
     id 26 
     name rradius
     direction -1 -4.48973e-011 4.26485e-028   
     length 3.58403   
     axis -180 30 90   XYZ
    dof rx
    limits (-10.0 170.0)
  end
  begin
     id 27 
     name rwrist
     direction -1 -4.48962e-011 9.79331e-027   
     length 1.79202   
     axis -4.67603e-015 -90 -90   XYZ
    dof ry
    limits (-180.0 0.0)
  end
  begin
     id 28
     name rhand
     direction -1 -4.48975e-011 1.95891e-026   
     length 0.34249   
     axis -1.24987e-014 -90 -90   XYZ
    dof rx rz
    limits (-90.0 90.0)
           (-45.0 45.0)
  end
  begin
     id 29
     name rfingers
     direction -1 -4.48893e-011 3.9147e-026   
     length 0.276124   
     axis -2.49979e-014 -90 -90   XYZ
    dof rx
    limits (0.0 90.0)
  end
  begin
     id 30
     name rthumb
     direction -0.707107 -6.34898e-011 0.707107   
     length 0.39646   
     axis -90 -45 -5.69224e-014   XYZ
    dof rx rz
    limits (-45.0 45.0)
           (-45.0 45.0)
  end
:hierarchy
  begin
    root lhipjoint rhipjoint lowerback
    lhipjoint lfemur
    lfemur ltibia
    ltibia lfoot
    lfoot ltoes
    rhipjoint rfemur
    rfemur rtibia
    rtibia rfoot
    rfoot rtoes
    lowerback upperback
    upperback thorax
    thorax lowerneck lclavicle rclavicle
    lowerneck upperneck
    upperneck head
    lclavicle lhumerus
    lhumerus lradius
    lradius lwrist
    lwrist lhand lthumb
    lhand lfingers
    rclavicle rhumerus
    rhumerus rradius
    rradius rwrist
    rwrist rhand rthumb
    rhand rfingers
  end

#!OML:ASF H:\charlestonDancing\Project 1\Capture day 1\Session 1\femaleDancer.ASF
:FULLY-SPECIFIED
:DEGREES
186
root -2.73932 17.3924 1.74447 -185.753 74.6152 -546.363
lowerback 16.875 -2.04136 2.79932
upperback 2.12002 -2.05485 -0.265235
thorax -7.29672 -1.01549 -1.40967
lowerneck 2.82669 3.42187 -0.262562
upperneck 2.43573 4.56308 4.24758
head 0.168839 2.30527 1.31207
rclavicle -1.79403e-014 -1.11319e-014
rhumerus -27.0638 -13.6067 -54.047
rradius 48.6284
rwrist -14.6143
rhand -9.20377 -33.1053
rfingers 7.12502
rthumb 16.7503 -62.4027
lclavicle -1.79403e-014 -1.11319e-014
lhumerus -20.7828 0.545112 64.0733
lradius 85.768
lwrist 28.6073
lhand -8.30591 25.2509
lfingers 7.12502
lthumb 17.6145 54.4729
rfemur -26.844 11.1572 8.28179
rtibia 37.4711
rfoot -13.8917 5.5491
rtoes -39.7504
lfemur -13.1078 5.84573 -21.2154
ltibia 66.5117
lfoot -15.722 -2.57752
ltoes -22.7459
187
root -2.7931 17.4083 1.63328 -186.962 78.1293 -547.276
lowerback 16.5288 -1.8461 2.88215
upperback 2.14194 -1.81681 -0.438112
thorax -7.07979 -0.906901 -1.70383
lowerneck 3.39063 4.06193 0.624639
upperneck 2.6343 5.45225 3.85313
head 0.153065 2.75602 1.02244
rclavicle -1.21756e-014 7.95139e-016
rhumerus -29.1563 -14.2597 -54.0867
rradius 47.3347
rwrist -14.3223
rhand -10.3878 -33.1055
rfingers 7.12502
rthumb 15.6102 -62.4956
lclavicle -1.21756e-014 7.95139e-016
lhumerus -19.6105 0.325294 64.0731
lradius 85.5674
lwrist 28.1943
lhand -8.37783 25.1875
lfingers 7.12502
lthumb 17.5453 54.4158
rfemur -26.8199 13.0141 8.27393
rtibia 35.8844
rfoot -13.5149 7.15968
rtoes -39.9679
lfemur -12.3032 4.63979 -21.412
ltibia 66.2633
lfoot -15.1954 -4.00501
ltoes -25.6066
188
root -2.8494 17.4204 1.5228 -189.129 81.4634 -549.148
lowerback 16.1263 -1.65338 2.82769
upperback 2.13383 -1.60669 -0.588386
thorax -6.85884 -0.807901 -1.88741
lowerneck 4.11371 4.61547 1.31808
upperneck 2.79146 6.23455 3.70605
head 0.0980227 3.15182 0.839617
rclavicle -1.73937e-016 5.96354e-016
rhumerus -31.4049 -14.8014 -53.8549
rradius 46.2976
rwrist -14.0217
rhand -11.1776 -33.6568
rfingers 7.12502
rthumb 14.8494 -63.1047
lclavicle -1.73937e-016 5.96354e-016
lhumerus -18.4105 0.132488 64.0871
lradius 85.1959
lwrist 28.0261
lhand -7.71622 24.0589
lfingers 7.12502
lthumb 18.1819 53.2291
rfemur -26.8977 14.3532 8.30659
rtibia 34.4313
rfoot -12.9858 9.27593
rtoes -39.4438
lfemur -11.5859 3.52886 -21.6117
ltibia 66.0061
lfoot -14.6386 -5.36043
ltoes -28.172
189
root -2.90574 17.4222 1.41568 -194.166 84.5124 -553.768
lowerback 15.739 -1.51128 2.57669
upperback 2.21942 -1.48722 -0.697896
thorax -6.54401 -0.742689 -1.89449
lowerneck 4.43456 5.12826 2.00075
upperneck 3.24833 6.94934 3.55425
head 0.206897 3.52464 0.67516
rclavicle 4.94477e-015 6.55989e-015
rhumerus -33.6266 -15.0794 -53.4672
rradius 45.5079
rwrist -13.6951
rhand -11.4752 -33.9568
rfingers 7.12502
rthumb 14.5627 -63.4256
lclavicle 4.94477e-015 6.55989e-015
lhumerus -17.1444 0.0536197 64.0888
lradius 84.8114
lwrist 27.9428
lhand -8.05002 24.5255
lfingers 7.12502
lthumb 17.8607 53.7254
rfemur -26.8584 15.7066 8.27465
rtibia 33.1545
rfoot -12.5172 11.2083
rtoes -39.041
lfemur -10.7511 2.47329 -21.8233
ltibia 65.7176
lfoot -13.9261 -6.88401
ltoes -28.155
